<?xml version="1.0" encoding="utf-8"?>
<!-- Generator: Adobe Illustrator 22.0.1, SVG Export Plug-In . SVG Version: 6.00 Build 0)  -->
<svg version="1.1" id="Layer_1" xmlns="http://www.w3.org/2000/svg" xmlns:xlink="http://www.w3.org/1999/xlink" x="0px" y="0px"
	 viewBox="0 0 489.1 4464.9" style="enable-background:new 0 0 489.1 4464.9;" xml:space="preserve">
<style type="text/css">
	.st0{fill:none;stroke:#EA5920;stroke-width:3;stroke-miterlimit:10;}
	.st1{fill:#EA5920;stroke:#EA5920;stroke-miterlimit:10;}
	.st2{fill:none;stroke:#EA5920;stroke-width:2.9747;stroke-miterlimit:10;}
	.st3{fill:#EA5920;stroke:#EA5920;stroke-width:3;stroke-miterlimit:10;}
</style>
<g>
	<path class="st0" d="M295.4,3240l-16-16v-152c-5.1-5.1-47-47-47-47v-155c3.3-3.3,22-22,22-22v-107"/>
	<path class="st0" d="M188.4,3862.5l16,16v152c5.1,5.1,47,47,47,47v155c-3.3,3.3-22,22-22,22s0,98.6,0,106.5c0,0,39.5,39.5,41,41
		c0,3,0,32,0,69.2"/>
	<circle class="st0" cx="161.9" cy="3250.5" r="6.5"/>
	<circle class="st0" cx="263.9" cy="3402.5" r="6.5"/>
	<circle class="st0" cx="183.9" cy="3858.5" r="6.5"/>
	<circle class="st0" cx="287.9" cy="2899.5" r="6.5"/>
	<g>
		<path class="st0" d="M290.9,2742v63c0,0,0,0.2,0,0.5c6.5,6.5,75,75,81.5,81.5c0,0,34,0,34,0"/>
		<path class="st0" d="M414.4,2894v155l-42,42v81l28.5,28.5c0,0,0.2,0.2,0.5,0.5v57l-51,51v80l16,16"/>
		<circle class="st0" cx="370.9" cy="3408.5" r="6.5"/>
		<circle class="st0" cx="413.9" cy="2887.5" r="6.5"/>
	</g>
	<circle class="st0" cx="312.9" cy="2659.5" r="6.5"/>
	<circle class="st0" cx="471.9" cy="2447.5" r="6.5"/>
	<g>
		<path class="st0" d="M301.4,3273h-10l-61-61c0,0-0.4-0.4-1-1c0-6.1,0-21.5,0-21.5"/>
		<circle class="st1" cx="309.4" cy="3273" r="8"/>
		<circle class="st1" cx="229.4" cy="3183" r="8"/>
	</g>
	<circle class="st1" cx="470.4" cy="4022" r="8"/>
	<g>
		<circle class="st0" cx="211.9" cy="3199.5" r="6.5"/>
		<circle class="st0" cx="290.9" cy="3289.5" r="6.5"/>
		<path class="st0" d="M283.4,3289h-10l-61-61c0,0-0.4-0.4-1-1c0-6.1,0-21.5,0-21.5"/>
	</g>
	<path class="st0" d="M254.4,2766v-104l30-30h11l15.5-15.5c0,0,0.2-0.2,0.5-0.5c0-6.9,0-47,0-47s-27-27-31-31c0-0.6,0-81,0-81
		l41.5-41.5c0,0,0.2-0.2,0.5-0.5c0-13.2,0-152,0-152"/>
	<path class="st0" d="M287.4,3492v104l-30,30h-11l-15.5,15.5c0,0-0.2,0.2-0.5,0.5c0,6.9,0,47,0,47s27,27,31,31c0,0.6,0,81,0,81
		l-41.5,41.5c0,0-0.2,0.2-0.5,0.5c0,13.2,0,152,0,152"/>
	<path class="st0" d="M287.4,3492v-157c-6.9-6.9-84-84-84-84h-34"/>
	<path class="st0" d="M196.1,1914.8v27c0,0,0,0.5,0,1c4.9,4.9,44,44,44,44h47l22,22v164l-46,46c0,0,0,68,0,68
		c0.3,0.3,0.5,0.5,0.5,0.5l30.5,30.5v59l-32,32"/>
	<path class="st0" d="M318.4,2655l15-15v-78l-27-27v-66l57.5-57.5c0,0,0.2-0.2,0.5-0.5c0-9.2,0-79,0-79s27-27,31-31c0,8.6,0,70,0,70
		c6.4,6.4,72,72,72,72"/>
	<g>
		<path class="st0" d="M57.4,2994.9c-2.5-2.5-2.5-6.7,0-9.2c2.5-2.5,6.7-2.5,9.2,0c2.5,2.5,2.5,6.7,0,9.2
			C64.1,2997.4,60,2997.4,57.4,2994.9z"/>
		<path class="st1" d="M255.1,2997.4c-3.1-3.1-3.1-8.2,0-11.3c3.1-3.1,8.2-3.1,11.3,0c3.1,3.1,3.1,8.2,0,11.3
			C263.2,3000.5,258.2,3000.5,255.1,2997.4z"/>
		<path class="st2" d="M255.8,2986.8l-16.8-16.8l-108-1.4l-33.7,33.7H74.2c0,0-0.4,0-1,0c-1-1-6.9-6.9-6.9-6.9"/>
	</g>
	<path class="st0" d="M292.4,2904l7.5,7.5c0,0,0.2,0.2,0.5,0.5c0,13.4,0,158,0,158l48,48v148l-29,29v197"/>
	<g>
		<path class="st0" d="M325.4,3899v-27c0,0,0-0.5,0-1c-4.9-4.9-44-44-44-44h-47l-22-22v-164l46-46c0,0,0-68,0-68
			c-0.3-0.3-0.5-0.5-0.5-0.5l-30.5-30.5v-59l32-32"/>
		<path class="st2" d="M325.4,3898v23.8l75.4,77.3h47.6l16.4,16.4c0,0,0.3,0.3,0.7,0.7"/>
	</g>
	<path class="st0" d="M245.1,1506.8"/>
	<path class="st0" d="M293.1,2174.3"/>
	<g>
		<circle class="st0" cx="178.6" cy="1921.1" r="6.5"/>
		<circle class="st0" cx="257.6" cy="2011.1" r="6.5"/>
		<path class="st0" d="M250.1,2010.6h-10l-61-61c0,0-0.4-0.4-1-1c0-6.1,0-21.5,0-21.5"/>
	</g>
	<path class="st0" d="M378.9,2432.5l-45.5,45.5c0,0.2,0,0.5,0,0.5v38"/>
	<circle class="st1" cx="384.4" cy="2427" r="8"/>
	<g>
		<line class="st0" x1="377.9" y1="1845.3" x2="297.3" y2="1845.3"/>
		<circle class="st1" cx="385.7" cy="1845.3" r="8"/>
	</g>
	<path class="st0" d="M239.5,1028.2l16,16v152c5.1,5.1,47,47,47,47v155c-3.3,3.3-22,22-22,22v107"/>
	<circle class="st0" cx="373" cy="1017.7" r="6.5"/>
	<circle class="st0" cx="271" cy="865.7" r="6.5"/>
	<circle class="st0" cx="226.9" cy="1110.5" r="6.5"/>
	<circle class="st0" cx="380.9" cy="2113.5" r="6.5"/>
	<g>
		<path class="st0" d="M233.5,995.2h10l61,61c0,0,0.4,0.4,1,1c0,6.1,0,21.5,0,21.5"/>
		<circle class="st1" cx="225.5" cy="995.2" r="8"/>
		<circle class="st1" cx="305.5" cy="1085.2" r="8"/>
	</g>
	<g>
		<circle class="st0" cx="323" cy="1068.7" r="6.5"/>
		<circle class="st0" cx="244" cy="978.7" r="6.5"/>
		<path class="st0" d="M251.5,979.2h10l61,61c0,0,0.4,0.4,1,1c0,6.1,0,21.5,0,21.5"/>
	</g>
	<path class="st0" d="M247.5,776.2v-104l30-30h11l15.5-15.5c0,0,0.2-0.2,0.5-0.5c0-6.9,0-47,0-47s-27-27-31-31c0-0.6,0-81,0-81
		l41.5-41.5c0,0,0.2-0.2,0.5-0.5c0-13.2,0-152,0-152"/>
	<path class="st0" d="M247.5,776.2v157c6.9,6.9,84,84,84,84h34"/>
	<g>
		<path class="st0" d="M261.5,1521.6c-2.5,2.5-6.7,2.5-9.2,0c-2.5-2.5-2.5-6.7,0-9.2c2.5-2.5,6.7-2.5,9.2,0
			C264,1515,264,1519.1,261.5,1521.6z"/>
		<circle class="st3" cx="258.3" cy="1318.3" r="8"/>
		<path class="st2" d="M253.4,1323.3l-16.8,16.8l-1.4,108l33.7,33.7v23.1c0,0,0,0.4,0,1c-1,1-6.9,6.9-6.9,6.9"/>
	</g>
	<path class="st0" d="M227.4,1116.5v197l-29,29v148c0,0,0,0.5,0,1.2c9.4,9.5,109.2,109.2,119,119c0,1.2,0,2.1,0,2.1v86.5
		c0,0-18.7,18.7-22,22v155c0,0,41.9,41.9,47,47v152c0,0,0,0.2,0,0.5c4.2,4.2,34.5,34.5,34.5,34.5"/>
	<path class="st0" d="M166.4,1482.5"/>
	<path class="st0" d="M166.4,1482.5"/>
	<g>
		<path class="st0" d="M209.5,369.2v27c0,0,0,0.5,0,1c4.9,4.9,44,44,44,44h47l22,22v164l-46,46c0,0,0,68,0,68
			c0.3,0.3,0.5,0.5,0.5,0.5l30.5,30.5v59l-32,32"/>
		<path class="st2" d="M209.5,370.2v-23.8L134.2,269H86.6l-16.4-16.4c0,0-0.3-0.3-0.7-0.7"/>
	</g>
	<g>
		<path class="st0" d="M226.4,248c0,0,0.9,0,2.5,0"/>
		<path class="st0" d="M144.9,103v63c0,0,0,0.2,0,0.5c5.9,5.9,65,65,81,81c0,0,0.3,0.3,0.5,0.5c1.3,0,2.5,0,2.5,0
			c7.9,0,31.5,0,31.5,0"/>
		<path class="st0" d="M268.4,255v155l-42,42v81l28.5,28.5c0,0,0.2,0.2,0.5,0.5v57l-51,51v80l16,16"/>
		<circle class="st0" cx="224.9" cy="769.5" r="6.5"/>
		<circle class="st0" cx="267.9" cy="248.5" r="6.5"/>
	</g>
	<line class="st0" x1="268.4" y1="241" x2="268.4" y2="-6.5"/>
	<polyline class="st0" points="305.4,-7 305.4,39 268.4,76 	"/>
</g>
</svg>
