<?xml version="1.0" encoding="utf-8"?>
<!-- Generator: Adobe Illustrator 22.0.1, SVG Export Plug-In . SVG Version: 6.00 Build 0)  -->
<svg version="1.1" id="Layer_1" xmlns="http://www.w3.org/2000/svg" xmlns:xlink="http://www.w3.org/1999/xlink" x="0px" y="0px"
	 viewBox="0 0 500 500" style="enable-background:new 0 0 500 500;" xml:space="preserve">
<style type="text/css">
	.st0{display:none;}
	.st1{display:inline;fill:#EA5920;}
	.st2{fill:#6B3975;}
	.st3{fill:none;}
	.st4{fill:#E95A24;}
</style>
<g id="Calque_1" class="st0">
</g>
<g id="Calque_3" class="st0">
	<path class="st1" d="M230.6,196.6c-17.7-0.7-16.6,19.5-11.2,25.9s11.2,22.8,11.2,22.8s6.8-16.9,11.2-22.8
		C246.1,216.6,248.3,197.3,230.6,196.6z M230.4,217.5c-3.4,0-6.1-2.7-6.1-6.1s2.7-6.1,6.1-6.1s6.1,2.7,6.1,6.1
		C236.5,214.7,233.8,217.5,230.4,217.5z"/>
</g>
<g>
	<g id="Calque_2">
		<polygon class="st2" points="519.4,1.4 551.1,1.4 551.1,27.6 		"/>
		<polygon class="st2" points="551.1,33.3 551.1,48.6 472.2,187.2 456.6,215.6 432.9,105.5 440.3,102.7 514,3.1 		"/>
		<polygon class="st2" points="551.1,62.9 551.1,128.6 530.5,156.2 496.1,161.6 		"/>
		<polygon class="st2" points="551.1,136.6 536.4,155.3 551.1,153.6 		"/>
		<polygon class="st2" points="551.1,159.3 551.1,187.8 499.5,170.4 499.5,167.5 		"/>
		<path class="st2" d="M551.1,192.6V223l-74.6-23.3l1.7-7.1V190l12.5-20.8l4-3.4h1.4v4.6c0,0-1.4,3.9,2.3,4.8
			S551.1,192.6,551.1,192.6z"/>
		<polygon class="st2" points="551.1,226.3 551.1,260.5 462.2,233.4 474.8,203 		"/>
		<polygon class="st2" points="551.1,265.1 551.1,290.7 490.1,268.3 468.4,270 462.2,237 		"/>
		<polygon class="st2" points="551.1,295.5 551.1,321.7 483.2,306.1 475.5,305.7 473.2,301.1 468,274.6 488.1,273.4 		"/>
		<polygon class="st2" points="551.1,325.9 551.1,328.1 541.6,344.6 480.6,331.6 476.3,309.5 483.1,310.1 		"/>
		<polygon class="st2" points="551.1,338.3 546.6,346.2 551.1,348.2 		"/>
		<polygon class="st2" points="551.1,352.7 551.1,387.9 530.8,379.8 544,350.2 		"/>
		<polygon class="st2" points="551.1,391.7 551.1,417.9 545.4,429.6 519.8,419.6 529.9,384.1 		"/>
		<polygon class="st2" points="550,435.7 548.6,435.7 534.7,469.9 534.7,476.2 536.6,481.8 542.4,487.8 551.1,491.7 551.1,435.7 		
			"/>
		<polygon class="st2" points="550.1,496 550.1,500.5 511.8,500.5 511.3,496 515.1,489.1 522.5,484.8 529.9,483.8 538.6,490.5 		"/>
		<polygon class="st2" points="508.5,480.6 509.4,489.8 518.2,482.8 		"/>
		<polyline class="st2" points="490.6,500.5 499.9,500.5 496.6,482 490.6,499.9 		"/>
		<polygon class="st2" points="485.9,500.5 492.5,482 496.2,476.6 490.6,446 477,448.7 473.6,456 476.3,458.7 476.3,460.7 
			475.3,464.2 463.3,464.5 460,469.8 451.6,467.4 447,462.6 442.7,462.4 440.6,460.4 410.7,453.2 397.6,490.5 424.2,500.5 		"/>
		<polygon class="st2" points="413.1,500.5 396.6,494.2 395.1,500.5 		"/>
		<polygon class="st2" points="391.1,500.5 392.7,493.1 379.2,488.2 373.6,500.5 		"/>
		<polygon class="st2" points="369.2,500.5 375,486.9 350.4,477.6 340.4,500.5 		"/>
		<polygon class="st2" points="336,500.5 346.4,476.2 326.1,468.8 308.9,500.5 		"/>
		<polygon class="st2" points="297.7,500.5 304.1,500.5 322.5,467.1 307.5,465 		"/>
		<polygon class="st2" points="293.2,500.5 327.7,383.3 327.7,382.3 278.8,368.1 240.1,355.2 225.2,411.3 221.3,414.9 223.7,418.9 
			221.3,430.5 218.3,436 213.6,439.2 214.9,446 211.1,456.9 207.2,472.5 198.7,500.5 		"/>
		<polygon class="st2" points="173.3,500.7 139.4,490.2 135.1,500.5 		"/>
		<polygon class="st2" points="110.6,500.7 116.4,481 72.2,463.9 55.6,500.7 		"/>
		<polygon class="st2" points="51.5,500.7 55.6,491 -1,463.9 -10.6,485.1 18,500.7 		"/>
		<polygon class="st2" points="11.8,437.1 2.5,458.2 57.4,486.8 67.9,461.9 		"/>
		<polygon class="st2" points="9.2,500.7 -12.7,490.2 -17.8,500.7 		"/>
		<polygon class="st2" points="-44.7,500.7 -44.7,491.9 -10.6,424.9 9.2,434.3 -21.9,500.7 		"/>
		<polygon class="st2" points="-44.7,364.4 -38.5,356.2 -33.1,356.2 -31.6,360.3 -25.1,364.4 9.2,375.8 -44.7,482.3 		"/>
		<polygon class="st2" points="-44.7,335.7 -44.7,326 -40.8,330.8 		"/>
		<polygon class="st2" points="-44.7,320.6 -44.7,249.2 -21.6,204.8 11,220.4 11,233.9 -0.6,248 -38.8,324 		"/>
		<polygon class="st2" points="-44.7,236.8 -25.4,203.1 -29.3,200.7 -44.7,227 		"/>
		<polygon class="st2" points="-44.7,196 -39.3,196 -44.7,190.3 		"/>
		<path class="st2" d="M-44,186.4l4.7,4l47.5,22.2c0,0,6.3-13.6,22.8-16.5s31.9-30.7,30.7-39.8c-1.1-9.1-8.4-18.8,0.1-39.2
			S97,46.4,97,46.4s6.3-1.7,3.4,3.4c-2.9,5.1-37,74.5-37,74.5s-6.3,17,3.4,30.2l4.6,6.8L154.4,1.4H8.7L-44.8,107L-44,186.4z"/>
		<polygon class="st2" points="-44,1.4 1.4,1.4 -44.7,95.3 		"/>
		<path class="st2" d="M12.4,213.9c0,0,4.8-11.7,18.2-13.2c13.3-1.6,34.4-27.5,33.3-40.8l7.1,3.7L58,190.3l-6.6,10.4l-17.3,14.6
			C34.1,215.3,19.3,224.2,12.4,213.9z"/>
		<polygon class="st2" points="15.6,222.4 15.6,228.4 19.6,225.4 		"/>
		<path class="st3" d="M-32.2,182.9c0,0-3.7-2-1.4-6.6c2.3-4.6,88.5-174.9,88.5-174.9h63.4l-59.5,116c0,0-1.1,5.6-1.7,33.9
			S24.4,197.4,5.3,196c-19-1.4-27-8.8-27-8.8l-5.3,8.9l-10.6-5L-32.2,182.9z"/>
		<polygon class="st2" points="173.2,1.4 148.2,50.6 189.1,73.7 205.7,3.7 197.9,1.4 		"/>
		<polygon class="st2" points="209.9,1.4 253.6,1.4 239.7,14.3 232.9,23.6 231.8,33.6 231.8,40.4 233.8,40.4 234.6,25.6 241.7,15.6 
			257.1,1.4 288.7,1.4 190.8,84.2 		"/>
		<polygon class="st2" points="294.4,1.4 320,1.4 303.5,62.6 242.3,45.2 		"/>
		<polygon class="st2" points="322.5,1.4 325.7,1.4 353.9,62.9 350.7,77.1 306.9,64 		"/>
		<polygon class="st2" points="338.2,1.4 371.5,1.4 358.6,46.1 		"/>
		<polygon class="st2" points="375.7,1.4 409,1.4 410.1,14.5 413.5,19.6 422.7,74 420.1,74 416.1,78.8 399.2,136.6 361.2,50.6 		"/>
		<path class="st2" d="M415.5,1.4h5.4c0,0-1.4,6.8-4,7.4L415.5,1.4z"/>
		<path class="st2" d="M424.7,1.4H462l-25.1,32.7c0,0-9.8,16.6-14.2,15l-4.4-36.4C418.3,12.8,425.5,9.1,424.7,1.4z"/>
		<polygon class="st2" points="466.2,1.4 511.7,1.4 443.1,92.4 438.3,99.3 432.9,101.6 424.1,53.5 428.7,51.5 		"/>
		<path class="st2" d="M424.1,77.1l-4.6,3.7l-17.6,60.6l38.4,86.8c0,0,10.8,1.1,10.8-12.6S424.1,77.1,424.1,77.1z"/>
		<path class="st2" d="M440.6,234.4c0,0,12-2,13.3-4.3c1.4-2.3,8.3,41.8,8.3,41.8l-3.1,1.4L440.6,234.4z"/>
		<polygon class="st2" points="460.5,277.1 462.8,276.2 466.2,291.4 		"/>
		<polygon class="st2" points="481.4,336.4 487.2,363.4 526.7,378.2 539.6,348.2 		"/>
		<polygon class="st2" points="488.2,369.9 502.6,449.2 525.6,382.7 		"/>
		<polygon class="st2" points="543.9,433.9 528.4,477.8 508.5,476.6 503.4,457.8 518.2,423.6 		"/>
		<polygon class="st2" points="433.6,350.2 475.2,365.2 476.3,376.5 490.4,444.3 475.3,447.7 471.6,457.2 474.5,459.8 474,462.5 
			462.8,462.5 458.8,467.5 451.6,465 447.5,460.9 444,460.6 440.9,458.3 411.2,450.7 426.2,409.6 		"/>
		<polygon class="st2" points="344.9,433.7 405.9,452.9 393.9,489 327.7,465 		"/>
		<polygon class="st2" points="365.6,393.5 346.4,430.5 407.1,449.2 421.3,409.6 		"/>
		<polygon class="st2" points="368.5,389.7 422.5,404.9 429.4,350.2 397.6,338.3 		"/>
		<polygon class="st2" points="450.8,279.4 463.3,308 474,361.4 434.4,346.8 436.6,327.1 		"/>
		<polygon class="st2" points="441.7,257.9 449,276.2 447.3,276.2 434.4,318.4 431.7,329.3 429.4,345.5 400.4,334.1 		"/>
		<polygon class="st2" points="396.3,159.3 426.5,223 381.4,210.1 		"/>
		<polygon class="st2" points="380.3,214.3 429,228.1 440.6,253.4 433.8,262.4 371.5,244.4 		"/>
		<polygon class="st2" points="370,248.7 361.9,279.4 415.9,295.2 432.9,266.2 		"/>
		<polygon class="st2" points="360,283.8 413.3,299 395.6,332.8 350.6,316.7 		"/>
		<polygon class="st2" points="349.6,320.4 393.7,336.4 367.5,382.7 333.3,372.4 		"/>
		<polygon class="st2" points="333.3,378.2 334.4,379.9 363.6,389.3 365.3,387 333.3,377.3 		"/>
		<polygon class="st2" points="333.3,383.3 361.5,392.5 323.5,465 307.9,462.5 330.4,385.7 		"/>
		<polyline class="st2" points="330,376.1 330,378.4 271.3,361.4 271.3,359.2 330,375.4 		"/>
		<polygon class="st2" points="268.3,357.7 268.3,359.2 240.1,351.5 240.1,349.4 		"/>
		<path class="st2" d="M273.6,355.2l56.3,16.4l64-216.2l-2-2.7l-55.2-13.6L286.1,314l6.6,2.3c0,0,2.3,2.9,1.4,6.8
			c-0.9,4-5.4,18.2-5.4,18.2s-3.7,5.3-8.8,4.2c-5.1-1.1-4-0.9-4-0.9L273.6,355.2z"/>
		<polygon class="st2" points="227,340.5 269.6,354.3 285.8,299.5 245.7,285.1 		"/>
		<path class="st2" d="M287.7,317.4c4.8,1.7,3.2,5.7,3.2,5.7s-2.8,12.8-4.6,17c-1.9,4.3-9.1,1-9.1,1l7.2-23.7l0.4-1L287.7,317.4z"/>
		<polygon class="st2" points="246.6,281.1 285.8,295.2 302.6,238.3 268.5,207.1 		"/>
		<polygon class="st2" points="304.1,233 326.8,157.3 326.8,155 277,167.5 269.1,201.1 		"/>
		<path class="st2" d="M280.2,162.5L306.9,69l41.5,12.4l-19.9,67.6C328.5,149.1,299.8,160.5,280.2,162.5z"/>
		<polygon class="st2" points="300.6,66.5 277.3,156.2 275.9,155 269.1,153.9 250.9,145.9 277,60 		"/>
		<polygon class="st2" points="246.7,159.6 250,150.2 269.1,158.2 276.5,158.9 274.9,164.2 262.1,164.2 		"/>
		<path class="st2" d="M263.8,165.8h11l1,1.3l-2.7,8C273,175.1,266.2,166.8,263.8,165.8z"/>
		<path class="st2" d="M245.9,162.5l14.8,3.4c0,0,11.7,8.3,11.4,11.4l-29.5,103.8c0,0-2.6,2-4,1.1c-1.4-0.9-15.3-33.5-15.3-33.5
			h-5.4v1.4l3.4,1.1l15,31.2l-22.8-8l-4.1-5.6L186,259l9.4-31l18,6.1l0.4-1.9l-17.7-6.4l7.6-22.8l13.6,4.7l0.9,18.3l4.5,7.3l1.6-1.3
			l-3.9-6.4l-0.4-18.7l11.1,2v-2l-11-2l-2.1,0.9l-13-4.6l13.6-40.7L245.9,162.5z"/>
		<polygon class="st2" points="209.1,272.1 210.6,272.8 211.6,275.4 236.9,284.3 241.5,284.3 223.1,339.5 191.2,328.6 		"/>
		<polygon class="st2" points="192.5,266.1 205.4,271.5 204.1,277.5 190.5,273.5 		"/>
		<polygon class="st2" points="192.7,277.5 199.2,279.6 192,292.3 		"/>
		<path class="st2" d="M200.7,280.1l1.9,0.9l-14.2,43.6h-1.1l2-21.7c0,0,1.9-0.1,2.6-2.6c0.6-2.6-0.7-3.4-0.7-3.4L200.7,280.1z"/>
		<path class="st2" d="M191.2,276.7h-1.8l-14.7,42.9l2.8,0.8l9.5-18.2c0,0-1.1-1.4-0.3-3.7c0,0,0.6-1.7,2.4-2.2L191.2,276.7z"/>
		<ellipse class="st2" cx="189.3" cy="299.6" rx="1.4" ry="1.6"/>
		<polygon class="st2" points="185.3,323.4 186.8,305.8 179.2,321.1 		"/>
		<path class="st2" d="M233.9,353l-16.6,59.8H210l-33.5-10.1l-8.1,0.6v-2.8l19-61.1l22,6.5l-2.1,6.6c0,0-0.6,1.3,0.9,2.6
			c1.5,1.3,2.1-0.9,2.1-0.9l2.4-7.3L233.9,353z"/>
		<polygon class="st2" points="190,333 188.9,335.3 233.9,350.5 235,347.9 		"/>
		<polygon class="st2" points="187.4,328.1 187.4,325.5 174.7,321.9 173.1,323.4 		"/>
		<polygon class="st2" points="185.9,331.5 185.9,334.3 171.2,329.4 173.1,326.6 		"/>
		<polygon class="st2" points="123,500.5 124.1,489 134,491.7 131,500.7 		"/>
		<polygon class="st2" points="121.1,500.7 121.7,488.3 120.3,487.5 116.9,500.5 		"/>
		<polygon class="st2" points="121.7,483.2 135.1,488.3 135.1,489.7 121.7,486.5 		"/>
		<polygon class="st2" points="125.3,472.2 124.1,475.2 137.8,480 139.3,477.2 		"/>
		<polygon class="st2" points="126.4,470.1 139.3,474.3 153.9,429.6 153.9,425.3 143.3,421.4 		"/>
		<polygon class="st2" points="144,419.6 154.4,423.6 155.3,419.6 149.7,418.1 145.5,415.9 		"/>
		<polygon class="st2" points="168.4,407.5 176.8,406.8 208.9,417.4 220,417.4 219.1,425.4 217.4,431.1 212.6,436.4 208.1,433.3 
			162.9,418.3 167.4,412.8 		"/>
		<path class="st2" d="M161.5,420.7l46.6,16.2c0,0,5.1,3.1,3.4,9c-1.7,5.8-4.3,14.5-4.3,14.5L195.6,498l-52.1-16.9l16.8-55.2
			L161.5,420.7z"/>
		<polygon class="st2" points="188,500.5 123,478.5 123,480 		"/>
		<polygon class="st2" points="73.6,460 112.2,474.3 119,474.3 140.1,411.7 132,408.9 127.1,410.7 94.5,400.4 		"/>
		<polygon class="st2" points="69.5,458.4 91.5,396.7 80.6,393.1 56.7,377.1 21.9,364.4 -8.3,420.7 		"/>
		<polygon class="st2" points="145.7,404.1 148.5,400.4 157.2,402.2 162.9,404.9 162,409.9 160.1,412.8 153.1,412.8 145.7,408.9 		
			"/>
		<polygon class="st2" points="140.8,400.4 140.1,404.9 97.7,392 99.1,386.1 		"/>
		<polygon class="st2" points="94,390.9 95.5,385.1 65.5,375.2 85.2,388.5 		"/>
		<polygon class="st2" points="170.3,333 184.4,337.9 164.6,398.9 158.2,395.5 151.4,395.5 		"/>
		<polygon class="st2" points="122.3,319.6 165.9,333 148.4,390.9 102.3,377.1 		"/>
		<polygon class="st2" points="144.1,249.5 188.9,265.1 166.5,328.1 123.8,316.4 		"/>
		<polygon class="st2" points="156.4,217.1 173.1,222.4 163.5,251.1 145.8,245 		"/>
		<polygon class="st2" points="174.7,223.1 192,228.6 183,257.5 166.3,252.3 		"/>
		<path class="st2" d="M192,223.9l-35.6-10.7l15.5-50.9c0,0,32.9-4.2,42.4-1.6L192,223.9z"/>
		<polygon class="st2" points="220.9,157.3 242.3,158.3 272.3,58 239.7,48.6 235,51.6 241.2,73.7 241,86.1 		"/>
		<path class="st2" d="M172.9,158.3c0,0,21.1-3.5,45.6-1l19.8-71.1V73.7L233,53.3l-44.8,38.4L172.9,158.3z"/>
		<path class="st2" d="M183.8,95.7l-15.1,62.5l-41.2,19.2l-14.3,10.9l-15.8,16.5l-65,129.4l-14.9-7.7c0,0-6.4-11.8,0-23
			c6.4-11.3,61.5-116.9,61.5-116.9S171.5,111.7,183.8,95.7z"/>
		<polygon class="st2" points="187.7,77.1 186,88.5 164.9,109.3 133.3,79.7 145.9,54.6 		"/>
		<polygon class="st2" points="131.1,84.2 160.5,111.8 89.3,173.2 89.3,165.8 		"/>
		<polygon class="st2" points="38.6,234.1 46,236.8 76.2,182.6 84.4,176.7 85.5,165.5 168.1,1.4 80.8,173.2 59.4,208.5 38.6,225.4 
					"/>
		<polygon class="st2" points="34.9,229.4 34.9,231.7 33.3,230.6 		"/>
		<path class="st2" d="M31,233.7l13.2,8.1l-30.6,61.3c0,0-6.1,11.8,0,25.5l15.8,10.1l-7,13.8l-35.7-11.7l-7.1-1.3l-6.4-9.6
			l40.5-79.4L31,233.7z"/>
		<polygon class="st2" points="-32.1,342 -29.9,337.6 -24.5,343.9 		"/>
		<polygon class="st2" points="-16.2,343.9 -14.6,347.2 20.6,356.2 		"/>
		<polygon class="st2" points="24.1,356.2 43,362.7 24.1,357 		"/>
		<path class="st2" d="M-36.6,350.7l2.1-3.7l50.6,14.1C16.2,361.2-30.5,354.2-36.6,350.7z"/>
		<path class="st2" d="M-24.5,361.2l35.6,10.3c0,0,0.3,1.3-1.1,1.3S-24.5,361.2-24.5,361.2z"/>
		<polygon class="st2" points="26.7,354.1 99.2,375.2 156.4,202.5 114.9,192 102.3,205.7 		"/>
		<polygon class="st2" points="166.3,164.2 156.4,200.5 116.9,190.6 131.1,179.8 		"/>
		<polygon class="st2" points="356.6,69 391.9,151.2 338.2,138.2 		"/>
	</g>
	<path class="st4" d="M244.6,263.3c-19.7-28.5-23.3-31.5-23.3-41.9c0-14.3,11.6-26,26-26c14.3,0,26,11.6,26,26
		c0,10.5-3.6,13.4-23.3,41.9C248.7,265.2,245.9,265.2,244.6,263.3L244.6,263.3z M247.3,232.2c6,0,10.8-4.8,10.8-10.8
		s-4.8-10.8-10.8-10.8c-6,0-10.8,4.8-10.8,10.8C236.5,227.4,241.3,232.2,247.3,232.2z"/>
</g>
</svg>
